0
SECTION
2
HEADER
9
$INSUNITS
70
4
9
$ACADVER
1
AC1014
9
$HANDSEED
5
FFFF
0
ENDSEC
0
SECTION
2
TABLES
0
TABLE
2
VPORT
5
8
100
AcDbSymbolTable
0
ENDTAB
0
TABLE
2
LTYPE
5
5
100
AcDbSymbolTable
0
LTYPE
5
14
100
AcDbSymbolTableRecord
100
AcDbLinetypeTableRecord
2
BYBLOCK
70
0
0
LTYPE
5
15
100
AcDbSymbolTableRecord
100
AcDbLinetypeTableRecord
2
BYLAYER
70
0
0
ENDTAB
0
TABLE
2
LAYER
5
2
100
AcDbSymbolTable
70
2
0
LAYER
5
50
100
AcDbSymbolTableRecord
100
AcDbLayerTableRecord
2
0
70
0
6
CONTINUOUS
0
ENDTAB
0
TABLE
2
STYLE
5
3
100
AcDbSymbolTable
70
1
0
STYLE
5
11
100
AcDbSymbolTableRecord
100
AcDbTextStyleTableRecord
2
STANDARD
70
0
0
ENDTAB
0
TABLE
2
VIEW
5
6
100
AcDbSymbolTable
70
0
0
ENDTAB
0
TABLE
2
UCS
5
7
100
AcDbSymbolTable
70
0
0
ENDTAB
0
TABLE
2
APPID
5
9
100
AcDbSymbolTable
70
2
0
APPID
5
12
100
AcDbSymbolTableRecord
100
AcDbRegAppTableRecord
2
ACAD
70
0
0
ENDTAB
0
TABLE
2
DIMSTYLE
5
A
100
AcDbSymbolTable
70
1
0
ENDTAB
0
TABLE
2
BLOCK_RECORD
5
1
100
AcDbSymbolTable
70
1
0
BLOCK_RECORD
5
1F
100
AcDbSymbolTableRecord
100
AcDbBlockTableRecord
2
*MODEL_SPACE
0
BLOCK_RECORD
5
1B
100
AcDbSymbolTableRecord
100
AcDbBlockTableRecord
2
*PAPER_SPACE
0
ENDTAB
0
ENDSEC
0
SECTION
2
BLOCKS
0
BLOCK
5
20
100
AcDbEntity
100
AcDbBlockBegin
2
*MODEL_SPACE
0
ENDBLK
5
21
100
AcDbEntity
100
AcDbBlockEnd
0
BLOCK
5
1C
100
AcDbEntity
100
AcDbBlockBegin
2
*PAPER_SPACE
0
ENDBLK
5
1D
100
AcDbEntity
100
AcDbBlockEnd
0
ENDSEC
0
SECTION
2
ENTITIES
0
LWPOLYLINE
5
100
100
AcDbEntity
8
0
100
AcDbPolyline
90
8
70
1
43
0.0
10
33.199999280273914
20
-21.000027675646606
42
0.41421356237309404
10
35.199999280273914
20
-19.000027675646606
10
35.199999280273914
20
32.499999251216643
42
0.4142135623730937
10
33.199999280273914
20
34.49999925121665
10
-37.199999190866947
20
34.49999925121665
42
0.4142135623730937
10
-39.199999190866947
20
32.499999251216643
10
-39.199999190866947
20
-19.000027675646606
42
0.41421356237309404
10
-37.199999190866947
20
-21.000027675646606
0
CIRCLE
5
101
100
AcDbEntity
8
0
100
AcDbCircle
10
31.749999280273915
20
-9.5500007487833525
30
0
40
1.6659999999999999
210
0
220
0
230
1
0
CIRCLE
5
102
100
AcDbEntity
8
0
100
AcDbCircle
10
-35.749999190866944
20
-9.5500007487833525
30
0
40
1.6659999999999999
210
0
220
0
230
1
0
LWPOLYLINE
5
103
100
AcDbEntity
8
0
100
AcDbPolyline
90
4
70
1
43
0.0
10
17.499999999999982
20
17.875
10
18.999999999999982
20
17.875
10
18.999999999999982
20
13.125
10
17.499999999999982
20
13.125
0
LWPOLYLINE
5
104
100
AcDbEntity
8
0
100
AcDbPolyline
90
4
70
1
43
0.0
10
8.4999999999999822
20
17.875
10
9.9999999999999822
20
17.875
10
9.999999999999984
20
13.125
10
8.499999999999984
20
13.125
0
LWPOLYLINE
5
105
100
AcDbEntity
8
0
100
AcDbPolyline
90
4
70
1
43
0.0
10
-0.50000000000001921
20
17.875
10
0.99999999999998102
20
17.875
10
0.9999999999999829
20
13.125
10
-0.50000000000001732
20
13.125
0
LWPOLYLINE
5
106
100
AcDbEntity
8
0
100
AcDbPolyline
90
4
70
1
43
0.0
10
-9.5000000000000195
20
17.875
10
-8.0000000000000195
20
17.875
10
-8.0000000000000178
20
13.125
10
-9.5000000000000178
20
13.125
0
LWPOLYLINE
5
107
100
AcDbEntity
8
0
100
AcDbPolyline
90
4
70
1
43
0.0
10
-18.500000000000018
20
17.875
10
-17.000000000000018
20
17.875
10
-17.000000000000014
20
13.125
10
-18.500000000000018
20
13.125
0
LWPOLYLINE
5
108
100
AcDbEntity
8
0
100
AcDbPolyline
90
12
70
1
43
0.0
10
33.199999280273914
20
-21.000027675646606
42
0.41421356237309503
10
35.199999280273914
20
-19.000027675646606
10
35.199999280273914
20
-11.574228996783074
10
35.199999280273914
20
-7.5257725007836296
10
35.199999280273914
20
32.499999251216643
42
0.41421356237309503
10
33.199999280273914
20
34.49999925121665
10
-37.199999190866947
20
34.49999925121665
42
0.4142135623730957
10
-39.199999190866947
20
32.499999251216643
10
-39.199999190866947
20
-7.525772500783634
10
-39.199999190866947
20
-11.574228996783072
10
-39.199999190866947
20
-19.000027675646606
42
0.41421356237309503
10
-37.199999190866947
20
-21.000027675646606
0
LWPOLYLINE
5
109
100
AcDbEntity
8
0
100
AcDbPolyline
90
4
70
1
43
0.0
10
-18.500000000000018
20
17.875
10
-18.500000000000014
20
13.125
10
-17.000000000000014
20
13.125
10
-17.000000000000014
20
17.875
0
LWPOLYLINE
5
110
100
AcDbEntity
8
0
100
AcDbPolyline
90
4
70
1
43
0.0
10
-9.5000000000000195
20
17.875
10
-9.5000000000000178
20
13.125
10
-8.0000000000000178
20
13.125
10
-8.0000000000000178
20
17.875
0
LWPOLYLINE
5
111
100
AcDbEntity
8
0
100
AcDbPolyline
90
4
70
1
43
0.0
10
-0.5000000000000191
20
17.875
10
-0.50000000000001721
20
13.125
10
0.9999999999999829
20
13.125
10
0.9999999999999809
20
17.875
0
LWPOLYLINE
5
112
100
AcDbEntity
8
0
100
AcDbPolyline
90
4
70
1
43
0.0
10
8.4999999999999822
20
17.875
10
8.499999999999984
20
13.125
10
9.999999999999984
20
13.125
10
9.9999999999999822
20
17.875
0
LWPOLYLINE
5
113
100
AcDbEntity
8
0
100
AcDbPolyline
90
4
70
1
43
0.0
10
17.499999999999982
20
17.875
10
17.499999999999986
20
13.125
10
18.999999999999982
20
13.125
10
18.999999999999982
20
17.875
0
CIRCLE
5
114
100
AcDbEntity
8
0
100
AcDbCircle
10
31.749999280273915
20
-9.5500007487833525
30
0
40
1.6659999999999999
210
0
220
0
230
1
0
CIRCLE
5
115
100
AcDbEntity
8
0
100
AcDbCircle
10
-35.749999190866944
20
-9.5500007487833525
30
0
40
1.6659999999999999
210
0
220
0
230
1
0
LWPOLYLINE
5
116
100
AcDbEntity
8
0
100
AcDbPolyline
90
8
70
1
43
0.0
10
-37.199999190866947
20
34.49999925121665
42
0.41421356237309503
10
-39.199999190866947
20
32.499999251216643
10
-39.199999190866947
20
-19.000027675646606
42
0.41421356237309503
10
-37.199999190866947
20
-21.000027675646606
10
33.199999280273914
20
-21.000027675646606
42
0.41421356237309503
10
35.199999280273914
20
-19.000027675646606
10
35.199999280273914
20
32.499999251216643
42
0.41421356237309503
10
33.199999280273914
20
34.49999925121665
0
CIRCLE
5
117
100
AcDbEntity
8
0
100
AcDbCircle
10
31.699999280273914
20
30.99999925121665
30
0
40
1.6659999999999999
210
0
220
0
230
1
0
CIRCLE
5
118
100
AcDbEntity
8
0
100
AcDbCircle
10
-35.500000536441803
20
-18.515574164195616
30
0
40
1.6659999999999999
210
0
220
0
230
1
0
CIRCLE
5
119
100
AcDbEntity
8
0
100
AcDbCircle
10
-35.500000536441803
20
30.99999925121665
30
0
40
1.6659999999999999
210
0
220
0
230
1
0
CIRCLE
5
120
100
AcDbEntity
8
0
100
AcDbCircle
10
31.699999280273921
20
-18.515574164195616
30
0
40
1.6659999999999999
210
0
220
0
230
1
0
ENDSEC
0
SECTION
2
OBJECTS
0
DICTIONARY
5
C
100
AcDbDictionary
3
ACAD_GROUP
350
D
3
ACAD_MLINESTYLE
350
17
0
DICTIONARY
5
D
100
AcDbDictionary
0
DICTIONARY
5
1A
330
C
100
AcDbDictionary
0
DICTIONARY
5
17
100
AcDbDictionary
0
ENDSEC
0
EOF
